<?xml version="1.0" standalone="no"?>
<!DOCTYPE svg PUBLIC "-//W3C//DTD SVG 20010904//EN"
 "http://www.w3.org/TR/2001/REC-SVG-20010904/DTD/svg10.dtd">
<svg version="1.0" xmlns="http://www.w3.org/2000/svg"
 width="1024.000000pt" height="1024.000000pt" viewBox="0 0 1024.000000 1024.000000"
 preserveAspectRatio="xMidYMid meet">
<metadata>
Created by potrace 1.11, written by Peter Selinger 2001-2013
</metadata>
<g transform="translate(0.000000,1024.000000) scale(0.100000,-0.100000)"
fill="#000000" stroke="none">
<path d="M5915 10216 c-168 -78 -324 -393 -480 -968 l-15 -57 -68 70 c-74 76
-101 85 -141 48 -73 -69 -84 -279 -30 -578 22 -120 38 -161 65 -161 29 0 92
40 123 77 17 21 52 79 78 128 25 50 47 92 49 94 2 2 34 -25 72 -60 l67 -64
-66 -47 c-131 -92 -181 -171 -187 -298 -3 -83 -3 -86 27 -121 25 -31 43 -40
103 -55 107 -27 200 -23 357 16 l134 32 84 -91 c47 -50 98 -98 114 -106 36
-19 154 -19 252 -1 98 19 202 55 367 129 170 75 530 226 675 282 123 47 250
109 260 125 24 39 -206 347 -337 451 -59 46 -101 50 -220 20 -101 -26 -571
-222 -767 -321 l-157 -78 -67 78 c-36 43 -87 91 -113 106 l-47 28 -81 -17
c-45 -9 -110 -28 -145 -42 -36 -14 -66 -23 -68 -21 -3 2 6 21 20 43 13 21 34
65 47 98 54 138 155 375 187 440 52 103 134 225 198 295 68 74 115 146 115
176 0 27 -58 111 -156 226 -133 156 -156 168 -249 124z"/>
<path d="M3543 9721 c14 -67 176 -290 293 -402 84 -80 138 -117 243 -168 61
-29 77 -41 68 -50 -41 -41 255 -400 455 -551 130 -98 294 -166 385 -158 l36 3
-51 56 c-28 30 -96 93 -151 139 -55 46 -98 87 -96 90 2 4 43 12 90 19 47 7 88
17 91 22 14 24 -117 223 -240 363 -79 90 -252 238 -369 316 -141 93 -632 327
-728 347 -32 6 -32 6 -26 -26z"/>
<path d="M4192 8450 c-38 -31 -98 -52 -228 -79 -180 -38 -703 -174 -854 -223
-182 -59 -236 -85 -296 -140 -51 -47 -51 -53 2 -135 40 -62 154 -185 198 -212
30 -19 36 -19 83 -7 28 8 113 39 190 69 153 62 248 89 523 151 l185 42 140
-143 c90 -92 147 -143 160 -143 30 0 114 56 213 141 152 131 217 200 237 252
l18 48 -29 28 c-28 27 -106 62 -168 77 -19 5 -75 53 -165 144 -75 76 -145 142
-156 148 -16 8 -26 5 -53 -18z"/>
<path d="M5144 8085 c-4 -17 -26 -36 -71 -61 -36 -20 -83 -52 -104 -71 -52
-47 -121 -161 -174 -285 l-44 -103 -64 -26 c-35 -14 -77 -35 -93 -46 -44 -31
-124 -120 -124 -137 0 -8 16 -31 35 -51 33 -35 37 -37 80 -31 25 4 45 4 45 -1
0 -4 -16 -48 -36 -98 l-36 -91 -108 -82 c-159 -120 -292 -244 -400 -371 -116
-136 -144 -183 -135 -230 14 -73 49 -125 208 -305 l49 -55 -67 -202 -67 -202
-69 -80 c-94 -109 -137 -177 -167 -260 -32 -92 -26 -132 28 -210 41 -57 42
-61 32 -106 -5 -25 -30 -147 -56 -270 -25 -124 -47 -226 -49 -227 -1 -1 -36
-16 -77 -33 -99 -41 -211 -102 -223 -122 -18 -29 35 -114 196 -313 l28 -34
-45 -293 c-25 -162 -50 -330 -56 -374 -20 -155 -12 -140 -93 -171 -547 -205
-783 -328 -935 -488 -79 -84 -85 -102 -53 -164 47 -92 306 -401 425 -507 86
-78 93 -78 168 -10 65 59 180 145 193 145 4 0 13 -6 19 -13 6 -8 69 -26 139
-41 199 -42 417 -105 465 -133 25 -14 52 -23 63 -20 24 6 278 -83 509 -178
572 -236 1228 -594 1710 -933 96 -68 259 -183 363 -256 305 -215 487 -322 718
-425 218 -96 388 -138 473 -117 35 9 33 26 -15 107 -104 180 -340 449 -432
493 -29 14 -137 46 -242 70 -104 25 -230 59 -280 76 -144 51 -332 154 -667
367 -366 234 -475 300 -653 395 -129 70 -380 191 -505 243 -36 15 -69 30 -73
35 -17 16 366 72 722 105 229 21 208 25 221 -42 41 -202 97 -290 345 -538 152
-153 190 -183 220 -171 36 13 -4 306 -85 635 -22 90 -39 165 -38 167 7 6 259
27 264 21 3 -3 17 -59 30 -124 51 -250 124 -496 180 -604 47 -89 138 -201 296
-362 129 -131 191 -178 209 -160 5 5 -15 116 -46 258 -72 326 -97 460 -140
745 -19 129 -38 247 -41 261 l-5 26 113 6 c130 6 208 23 208 44 0 55 -163 279
-339 464 l-91 97 -45 223 c-25 123 -48 233 -51 245 -5 18 0 22 28 28 18 3 95
20 171 38 l139 32 -6 27 c-20 104 -351 529 -473 609 -19 13 -33 57 -87 270
-38 151 -60 259 -55 265 16 17 9 48 -21 94 -16 26 -45 102 -65 171 -88 302
-269 826 -469 1355 -68 179 -74 201 -60 212 23 17 14 45 -48 138 -35 54 -68
124 -101 215 -92 254 -198 563 -195 570 2 4 67 55 145 114 78 58 145 110 148
116 17 28 -74 158 -201 286 -92 92 -117 104 -225 104 l-66 0 -38 108 c-21 59
-45 121 -53 137 -18 36 -101 135 -113 135 -5 0 -11 -11 -15 -25z m223 -1240
c18 -55 33 -105 33 -111 0 -8 -25 -14 -76 -16 -42 -2 -77 -1 -79 2 -1 3 -6 43
-9 90 l-7 85 43 27 c24 15 47 26 52 25 5 -2 25 -48 43 -102z m274 -802 c16
-43 169 -524 169 -532 0 -5 -43 -11 -95 -15 -52 -3 -147 -15 -211 -27 -64 -11
-118 -19 -119 -17 -1 2 -12 84 -24 183 -12 99 -24 198 -27 221 l-6 41 149 86
c81 48 149 87 151 87 1 0 7 -12 13 -27z m-677 -557 c9 -66 13 -123 9 -127 -16
-15 -453 -102 -453 -90 0 15 413 351 421 343 3 -4 13 -61 23 -126z m966 -394
c23 -90 40 -166 37 -169 -3 -3 -45 4 -94 16 -99 23 -301 51 -369 51 -39 0 -46
3 -54 26 -17 44 -12 64 18 75 15 5 113 47 217 93 105 46 193 81 196 77 3 -3
25 -79 49 -169z m-1525 -466 c52 -10 64 -15 45 -19 -52 -12 -140 -17 -140 -8
0 16 12 41 19 40 3 0 38 -6 76 -13z m1725 -390 c0 -2 11 -59 25 -126 14 -68
23 -125 21 -127 -2 -3 -51 5 -108 16 -56 12 -175 32 -262 46 -88 14 -163 30
-167 37 -15 24 -21 81 -9 88 7 4 47 11 89 14 57 6 312 40 404 55 4 0 7 -1 7
-3z m-1815 -575 c55 -6 138 -13 185 -16 47 -4 184 -20 305 -36 120 -16 226
-29 234 -29 41 0 -14 -15 -146 -40 -226 -43 -416 -86 -594 -136 -89 -24 -163
-43 -164 -42 -3 4 25 291 30 306 3 7 14 10 27 7 13 -2 68 -9 123 -14z m2055
-636 c0 -2 14 -86 30 -187 17 -100 30 -187 30 -193 0 -9 -291 -70 -335 -70 -8
0 -136 385 -130 393 2 3 362 60 388 61 9 1 17 -1 17 -4z m-728 -301 c25 -98
47 -188 47 -199 1 -19 -15 -23 -201 -53 -255 -42 -403 -74 -543 -119 -304 -98
-524 -240 -551 -356 -7 -35 3 -36 -214 21 l-155 41 2 178 c1 98 6 191 11 207
10 35 39 48 377 161 407 137 701 216 1038 280 67 13 127 22 132 21 6 -1 31
-83 57 -182z m-1963 -524 c33 -46 59 -85 58 -87 -2 -1 -57 4 -122 12 -66 8
-145 15 -175 16 -120 3 -117 9 30 82 74 37 138 66 142 64 3 -1 33 -40 67 -87z"/>
</g>
</svg>
